<?xml version="1.0" encoding="utf-8"?>
<!-- Svg Vector Icons : http://www.onlinewebfonts.com/icon -->
<!DOCTYPE svg PUBLIC "-//W3C//DTD SVG 1.1//EN" "http://www.w3.org/Graphics/SVG/1.1/DTD/svg11.dtd">
<svg version="1.1" xmlns="http://www.w3.org/2000/svg" xmlns:xlink="http://www.w3.org/1999/xlink" x="0px" y="0px" viewBox="0 0 1000 1000" enable-background="new 0 0 1000 1000" xml:space="preserve">
<metadata> Svg Vector Icons : http://www.onlinewebfonts.com/icon </metadata>
<g><path d="M990,500c0,66.4-13,129.7-38.9,190.1c-25.9,60.4-60.8,112.5-104.6,156.3s-95.9,78.7-156.3,104.6C629.7,977,566.4,990,500,990c-73.2,0-142.7-15.4-208.6-46.3s-122.1-74.3-168.4-130.5c-3-4.3-4.4-9-4.1-14.4c0.2-5.3,2-9.7,5.4-13.1l87.4-88c4.3-3.8,9.6-5.7,16-5.7c6.8,0.9,11.7,3.4,14.7,7.7c31,40.4,69.1,71.7,114.2,93.8c45.1,22.1,92.9,33.2,143.6,33.2c44.2,0,86.5-8.6,126.6-25.8c40.2-17.2,75-40.5,104.3-69.9c29.3-29.3,52.6-64.1,69.9-104.3c17.2-40.2,25.8-82.4,25.8-126.6s-8.6-86.5-25.8-126.6c-17.2-40.2-40.5-75-69.9-104.3c-29.3-29.3-64.1-52.6-104.3-69.9c-40.2-17.2-82.4-25.8-126.6-25.8c-41.7,0-81.7,7.5-119.9,22.6c-38.3,15.1-72.3,36.7-102.1,64.8l87.4,88c13.2,12.8,16.2,27.4,8.9,44c-7.2,17-19.8,25.5-37.6,25.5H50.8c-11.1,0-20.6-4-28.7-12.1C14,398.1,10,388.6,10,377.5V91.7c0-17.9,8.5-30.4,25.5-37.6c16.6-7.2,31.3-4.3,44,8.9l82.9,82.3c45.5-43,97.5-76.2,156-99.9C377,21.8,437.5,10,500,10c66.4,0,129.7,13,190.1,38.9c60.4,25.9,112.5,60.8,156.3,104.6c43.8,43.8,78.7,95.9,104.6,156.3C977,370.3,990,433.6,990,500L990,500z"/></g>
</svg>