<?xml version="1.0" encoding="utf-8"?>
<!-- Svg Vector Icons : http://www.onlinewebfonts.com/icon -->
<!DOCTYPE svg PUBLIC "-//W3C//DTD SVG 1.1//EN" "http://www.w3.org/Graphics/SVG/1.1/DTD/svg11.dtd">
<svg version="1.1" xmlns="http://www.w3.org/2000/svg" xmlns:xlink="http://www.w3.org/1999/xlink" x="0px" y="0px" viewBox="0 0 1000 1000" enable-background="new 0 0 1000 1000" xml:space="preserve">
<metadata> Svg Vector Icons : http://www.onlinewebfonts.com/icon </metadata>
<g><path d="M500,10C229.4,10,10,229.4,10,500c0,270.6,219.4,490,490,490c270.6,0,490-219.4,490-490C990,229.4,770.6,10,500,10z M500,898.1c-219.9,0-398.1-178.2-398.1-398.1c0-219.9,178.2-398.1,398.1-398.1c219.9,0,398.1,178.2,398.1,398.1C898.1,719.9,719.9,898.1,500,898.1z M654.1,366.4L448.3,572.2l-95.5-95.5c-18.2-18.2-47.7-18.2-65.9,0c-18.2,18.2-18.2,47.7,0,65.9L414.3,670c9.2,9.2,21.2,13.7,33.3,13.6c11.9,0.1,23.8-4.4,32.9-13.5l238.6-238.6c18-18,18-47.1,0-65.1C701.2,348.5,672.1,348.5,654.1,366.4z"/></g>
</svg>