<?xml version="1.0" encoding="utf-8"?>
<!-- Svg Vector Icons : http://www.onlinewebfonts.com/icon -->
<!DOCTYPE svg PUBLIC "-//W3C//DTD SVG 1.1//EN" "http://www.w3.org/Graphics/SVG/1.1/DTD/svg11.dtd">
<svg version="1.1" xmlns="http://www.w3.org/2000/svg" xmlns:xlink="http://www.w3.org/1999/xlink" x="0px" y="0px" viewBox="0 0 1000 1000" enable-background="new 0 0 1000 1000" xml:space="preserve">
<metadata> Svg Vector Icons : http://www.onlinewebfonts.com/icon </metadata>
<g><path d="M500,990C229.4,990,10,770.6,10,500C10,229.4,229.4,10,500,10c270.6,0,490,219.4,490,490C990,770.6,770.7,990,500,990L500,990z M754.9,327.7l-15.8-15.8c-8.7-8.7-22.8-8.7-31.5,0L381,631.8l-120-125.5c-3.9-3.9-14.1,0-22.9,8.6l-15.7,15.7c-8.7,8.7-12.6,19-8.7,22.9l160,167.5c3.9,3.9,14.2,0.1,22.9-8.7l15.7-15.7c2.8-2.8,4.8-5.6,6.5-8.4l335.9-329C763.5,350.5,763.5,336.4,754.9,327.7L754.9,327.7z"/></g>
</svg>