<?xml version="1.0" encoding="utf-8"?>
<!-- Svg Vector Icons : http://www.onlinewebfonts.com/icon -->
<!DOCTYPE svg PUBLIC "-//W3C//DTD SVG 1.1//EN" "http://www.w3.org/Graphics/SVG/1.1/DTD/svg11.dtd">
<svg version="1.1" xmlns="http://www.w3.org/2000/svg" xmlns:xlink="http://www.w3.org/1999/xlink" x="0px" y="0px" viewBox="0 0 1000 1000" enable-background="new 0 0 1000 1000" xml:space="preserve">
<metadata> Svg Vector Icons : http://www.onlinewebfonts.com/icon </metadata>
<g><g><path d="M377.5,806.3V357.1c0-6-1.9-10.8-5.7-14.7c-3.8-3.8-8.7-5.7-14.7-5.7h-40.8c-6,0-10.8,1.9-14.7,5.7c-3.8,3.8-5.7,8.7-5.7,14.7v449.2c0,6,1.9,10.8,5.7,14.7c3.8,3.8,8.7,5.7,14.7,5.7h40.8c6,0,10.8-1.9,14.7-5.7C375.6,817.1,377.5,812.2,377.5,806.3z M540.8,806.3V357.1c0-6-1.9-10.8-5.7-14.7c-3.8-3.8-8.7-5.7-14.7-5.7h-40.8c-6,0-10.8,1.9-14.7,5.7c-3.8,3.8-5.7,8.7-5.7,14.7v449.2c0,6,1.9,10.8,5.7,14.7c3.8,3.8,8.7,5.7,14.7,5.7h40.8c6,0,10.8-1.9,14.7-5.7C538.9,817.1,540.8,812.2,540.8,806.3z M704.2,806.3V357.1c0-6-1.9-10.8-5.7-14.7c-3.8-3.8-8.7-5.7-14.7-5.7h-40.8c-6,0-10.8,1.9-14.7,5.7c-3.8,3.8-5.7,8.7-5.7,14.7v449.2c0,6,1.9,10.8,5.7,14.7c3.8,3.8,8.7,5.7,14.7,5.7h40.8c6,0,10.8-1.9,14.7-5.7C702.3,817.1,704.2,812.2,704.2,806.3z M357.1,173.3h285.8l-30.6-74.6c-3-3.8-6.6-6.2-10.8-7H399.2c-4.3,0.9-7.9,3.2-10.8,7L357.1,173.3z M949.2,193.8v40.8c0,6-1.9,10.8-5.7,14.7c-3.8,3.8-8.7,5.7-14.7,5.7h-61.3v604.8c0,35.3-10,65.8-30,91.6c-20,25.7-44,38.6-72.1,38.6H234.6c-28.1,0-52.1-12.4-72.1-37.3c-20-24.9-30-55-30-90.3V255H71.3c-6,0-10.8-1.9-14.7-5.7c-3.8-3.8-5.7-8.7-5.7-14.7v-40.8c0-6,1.9-10.8,5.7-14.7c3.8-3.8,8.7-5.7,14.7-5.7h197.1l44.7-106.5c6.4-15.7,17.9-29.1,34.5-40.2C364.1,15.5,380.9,10,397.9,10h204.2c17,0,33.8,5.5,50.4,16.6c16.6,11.1,28.1,24.5,34.5,40.2l44.7,106.5h197.1c6,0,10.8,1.9,14.7,5.7C947.3,182.9,949.2,187.8,949.2,193.8L949.2,193.8z"/></g></g>
</svg>